G75*
%MOIN*%
%OFA0B0*%
%FSLAX25Y25*%
%IPPOS*%
%LPD*%
%AMOC8*
5,1,8,0,0,1.08239X$1,22.5*
%
%ADD10C,0.00000*%
%ADD11OC8,0.06300*%
%ADD12C,0.06300*%
%ADD13OC8,0.05200*%
%ADD14C,0.06600*%
%ADD15C,0.06000*%
%ADD16C,0.08600*%
%ADD17C,0.01600*%
%ADD18R,0.03962X0.03962*%
D10*
X0001800Y0040337D02*
X0001800Y0199038D01*
X0146721Y0199038D01*
X0146721Y0040337D01*
X0001800Y0040337D01*
D11*
X0049800Y0180337D03*
D12*
X0063800Y0180337D03*
D13*
X0086800Y0175337D03*
X0126800Y0175337D03*
X0131800Y0145337D03*
X0131800Y0125337D03*
D14*
X0106800Y0120337D03*
X0096800Y0120337D03*
X0086800Y0120337D03*
X0076800Y0120337D03*
X0076800Y0150337D03*
X0086800Y0150337D03*
X0096800Y0150337D03*
X0106800Y0150337D03*
D15*
X0019800Y0160337D02*
X0013800Y0160337D01*
X0013800Y0170337D02*
X0019800Y0170337D01*
X0019800Y0065337D02*
X0013800Y0065337D01*
X0013800Y0055337D02*
X0019800Y0055337D01*
D16*
X0067115Y0055337D03*
X0086800Y0055337D03*
X0106485Y0055337D03*
D17*
X0106485Y0105022D01*
X0116800Y0115337D01*
X0116800Y0135337D01*
X0111800Y0140337D01*
X0096800Y0140337D01*
X0086800Y0150337D01*
X0094300Y0157837D01*
X0094300Y0165337D01*
X0104300Y0175337D01*
X0126800Y0175337D01*
X0130268Y0177809D02*
X0141921Y0177809D01*
X0141921Y0179407D02*
X0128669Y0179407D01*
X0128540Y0179537D02*
X0125060Y0179537D01*
X0123260Y0177737D01*
X0103823Y0177737D01*
X0102941Y0177372D01*
X0092941Y0167372D01*
X0092941Y0167372D01*
X0092265Y0166696D01*
X0091900Y0165814D01*
X0091900Y0158831D01*
X0088150Y0155081D01*
X0087775Y0155237D01*
X0085825Y0155237D01*
X0084577Y0154720D01*
X0088835Y0158978D01*
X0089200Y0159860D01*
X0089200Y0171797D01*
X0091000Y0173597D01*
X0091000Y0177077D01*
X0088540Y0179537D01*
X0085060Y0179537D01*
X0082600Y0177077D01*
X0082600Y0173597D01*
X0084400Y0171797D01*
X0084400Y0161331D01*
X0078150Y0155081D01*
X0077775Y0155237D01*
X0075825Y0155237D01*
X0074024Y0154491D01*
X0072646Y0153113D01*
X0072490Y0152737D01*
X0070381Y0152737D01*
X0070381Y0152981D01*
X0069444Y0153918D01*
X0064200Y0153918D01*
X0064200Y0175587D01*
X0064745Y0175587D01*
X0066491Y0176310D01*
X0067827Y0177646D01*
X0068550Y0179392D01*
X0068550Y0181282D01*
X0067827Y0183028D01*
X0066491Y0184364D01*
X0064745Y0185087D01*
X0062855Y0185087D01*
X0061109Y0184364D01*
X0059773Y0183028D01*
X0059050Y0181282D01*
X0059050Y0179392D01*
X0059400Y0178547D01*
X0059400Y0134860D01*
X0059765Y0133978D01*
X0060441Y0133302D01*
X0065441Y0128302D01*
X0066323Y0127937D01*
X0090806Y0127937D01*
X0094185Y0124558D01*
X0094024Y0124491D01*
X0092646Y0123113D01*
X0091900Y0121312D01*
X0091900Y0119362D01*
X0092646Y0117561D01*
X0094024Y0116183D01*
X0095825Y0115437D01*
X0097775Y0115437D01*
X0099576Y0116183D01*
X0100954Y0117561D01*
X0101700Y0119362D01*
X0101700Y0121312D01*
X0100954Y0123113D01*
X0099576Y0124491D01*
X0099200Y0124647D01*
X0099200Y0125814D01*
X0098835Y0126696D01*
X0093835Y0131696D01*
X0093159Y0132372D01*
X0092277Y0132737D01*
X0067794Y0132737D01*
X0064200Y0136331D01*
X0064200Y0146756D01*
X0069444Y0146756D01*
X0070381Y0147693D01*
X0070381Y0147937D01*
X0072490Y0147937D01*
X0072646Y0147561D01*
X0074024Y0146183D01*
X0075825Y0145437D01*
X0077775Y0145437D01*
X0079576Y0146183D01*
X0080954Y0147561D01*
X0081700Y0149362D01*
X0081700Y0151312D01*
X0081544Y0151687D01*
X0082417Y0152560D01*
X0081900Y0151312D01*
X0081900Y0149362D01*
X0082646Y0147561D01*
X0084024Y0146183D01*
X0085825Y0145437D01*
X0087775Y0145437D01*
X0088150Y0145593D01*
X0095441Y0138302D01*
X0096323Y0137937D01*
X0110806Y0137937D01*
X0114400Y0134343D01*
X0114400Y0116331D01*
X0104450Y0106382D01*
X0104085Y0105499D01*
X0104085Y0060729D01*
X0103143Y0060339D01*
X0101483Y0058679D01*
X0100585Y0056511D01*
X0100585Y0054163D01*
X0101483Y0051995D01*
X0103143Y0050335D01*
X0103380Y0050237D01*
X0095294Y0050237D01*
X0092310Y0053221D01*
X0092700Y0054163D01*
X0092700Y0056511D01*
X0091802Y0058679D01*
X0090142Y0060339D01*
X0089200Y0060729D01*
X0089200Y0116027D01*
X0089576Y0116183D01*
X0090954Y0117561D01*
X0091700Y0119362D01*
X0091700Y0121312D01*
X0090954Y0123113D01*
X0089576Y0124491D01*
X0087775Y0125237D01*
X0085825Y0125237D01*
X0084024Y0124491D01*
X0082646Y0123113D01*
X0081900Y0121312D01*
X0081900Y0119362D01*
X0082646Y0117561D01*
X0084024Y0116183D01*
X0084400Y0116027D01*
X0084400Y0060729D01*
X0083458Y0060339D01*
X0081798Y0058679D01*
X0081408Y0057737D01*
X0072507Y0057737D01*
X0072117Y0058679D01*
X0070457Y0060339D01*
X0068289Y0061237D01*
X0065941Y0061237D01*
X0063773Y0060339D01*
X0062113Y0058679D01*
X0061215Y0056511D01*
X0061215Y0054163D01*
X0062113Y0051995D01*
X0063773Y0050335D01*
X0065941Y0049437D01*
X0068289Y0049437D01*
X0070457Y0050335D01*
X0072117Y0051995D01*
X0072507Y0052937D01*
X0081408Y0052937D01*
X0081798Y0051995D01*
X0083458Y0050335D01*
X0085626Y0049437D01*
X0087974Y0049437D01*
X0088916Y0049827D01*
X0091006Y0047737D01*
X0052794Y0047737D01*
X0045194Y0055337D01*
X0052794Y0062937D01*
X0057277Y0062937D01*
X0058159Y0063302D01*
X0058835Y0063978D01*
X0078835Y0083978D01*
X0079200Y0084860D01*
X0079200Y0116027D01*
X0079576Y0116183D01*
X0080954Y0117561D01*
X0081700Y0119362D01*
X0081700Y0121312D01*
X0080954Y0123113D01*
X0079576Y0124491D01*
X0077775Y0125237D01*
X0075825Y0125237D01*
X0074024Y0124491D01*
X0072646Y0123113D01*
X0072490Y0122737D01*
X0052794Y0122737D01*
X0049200Y0126331D01*
X0049200Y0150814D01*
X0048835Y0151696D01*
X0048159Y0152372D01*
X0028159Y0172372D01*
X0027277Y0172737D01*
X0023785Y0172737D01*
X0023700Y0172943D01*
X0022406Y0174237D01*
X0020715Y0174937D01*
X0012885Y0174937D01*
X0011194Y0174237D01*
X0009900Y0172943D01*
X0009200Y0171252D01*
X0009200Y0169422D01*
X0009900Y0167731D01*
X0011194Y0166437D01*
X0012885Y0165737D01*
X0020715Y0165737D01*
X0022406Y0166437D01*
X0023700Y0167731D01*
X0023785Y0167937D01*
X0025806Y0167937D01*
X0044400Y0149343D01*
X0044400Y0124860D01*
X0044765Y0123978D01*
X0049765Y0118978D01*
X0050441Y0118302D01*
X0051323Y0117937D01*
X0072490Y0117937D01*
X0072646Y0117561D01*
X0074024Y0116183D01*
X0074400Y0116027D01*
X0074400Y0086331D01*
X0055806Y0067737D01*
X0051323Y0067737D01*
X0050441Y0067372D01*
X0040806Y0057737D01*
X0023785Y0057737D01*
X0023700Y0057943D01*
X0022406Y0059237D01*
X0020715Y0059937D01*
X0012885Y0059937D01*
X0011194Y0059237D01*
X0009900Y0057943D01*
X0009200Y0056252D01*
X0009200Y0054422D01*
X0009900Y0052731D01*
X0011194Y0051437D01*
X0012885Y0050737D01*
X0020715Y0050737D01*
X0022406Y0051437D01*
X0023700Y0052731D01*
X0023785Y0052937D01*
X0040806Y0052937D01*
X0048606Y0045137D01*
X0006600Y0045137D01*
X0006600Y0162143D01*
X0009200Y0159543D01*
X0009200Y0159422D01*
X0009900Y0157731D01*
X0011194Y0156437D01*
X0012885Y0155737D01*
X0020715Y0155737D01*
X0022406Y0156437D01*
X0023700Y0157731D01*
X0024400Y0159422D01*
X0024400Y0161252D01*
X0023700Y0162943D01*
X0022406Y0164237D01*
X0020715Y0164937D01*
X0012885Y0164937D01*
X0011265Y0164266D01*
X0009200Y0166331D01*
X0009200Y0174343D01*
X0012794Y0177937D01*
X0045482Y0177937D01*
X0047832Y0175587D01*
X0051768Y0175587D01*
X0054550Y0178369D01*
X0054550Y0182305D01*
X0051768Y0185087D01*
X0047832Y0185087D01*
X0045482Y0182737D01*
X0011323Y0182737D01*
X0010441Y0182372D01*
X0006600Y0178531D01*
X0006600Y0194238D01*
X0141921Y0194238D01*
X0141921Y0045137D01*
X0119994Y0045137D01*
X0133159Y0058302D01*
X0133835Y0058978D01*
X0134200Y0059860D01*
X0134200Y0121797D01*
X0136000Y0123597D01*
X0136000Y0127077D01*
X0133540Y0129537D01*
X0130060Y0129537D01*
X0127600Y0127077D01*
X0127600Y0123597D01*
X0129400Y0121797D01*
X0129400Y0061331D01*
X0126700Y0058631D01*
X0126700Y0135814D01*
X0126335Y0136696D01*
X0125659Y0137372D01*
X0118159Y0144872D01*
X0117277Y0145237D01*
X0102794Y0145237D01*
X0100712Y0147319D01*
X0100954Y0147561D01*
X0101700Y0149362D01*
X0101700Y0151312D01*
X0100954Y0153113D01*
X0099576Y0154491D01*
X0099415Y0154558D01*
X0102794Y0157937D01*
X0120806Y0157937D01*
X0129400Y0149343D01*
X0129400Y0148877D01*
X0127600Y0147077D01*
X0127600Y0143597D01*
X0130060Y0141137D01*
X0133540Y0141137D01*
X0136000Y0143597D01*
X0136000Y0147077D01*
X0134200Y0148877D01*
X0134200Y0150814D01*
X0133835Y0151696D01*
X0123835Y0161696D01*
X0123159Y0162372D01*
X0122277Y0162737D01*
X0101323Y0162737D01*
X0100441Y0162372D01*
X0096700Y0158631D01*
X0096700Y0164343D01*
X0105294Y0172937D01*
X0123260Y0172937D01*
X0125060Y0171137D01*
X0128540Y0171137D01*
X0131000Y0173597D01*
X0131000Y0177077D01*
X0128540Y0179537D01*
X0124931Y0179407D02*
X0088669Y0179407D01*
X0090268Y0177809D02*
X0123332Y0177809D01*
X0124782Y0171415D02*
X0103772Y0171415D01*
X0102174Y0169816D02*
X0141921Y0169816D01*
X0141921Y0168218D02*
X0100575Y0168218D01*
X0098976Y0166619D02*
X0141921Y0166619D01*
X0141921Y0165021D02*
X0097378Y0165021D01*
X0096700Y0163422D02*
X0141921Y0163422D01*
X0141921Y0161824D02*
X0123707Y0161824D01*
X0125306Y0160225D02*
X0141921Y0160225D01*
X0141921Y0158627D02*
X0126904Y0158627D01*
X0128503Y0157028D02*
X0141921Y0157028D01*
X0141921Y0155430D02*
X0130101Y0155430D01*
X0131700Y0153831D02*
X0141921Y0153831D01*
X0141921Y0152233D02*
X0133298Y0152233D01*
X0134200Y0150634D02*
X0141921Y0150634D01*
X0141921Y0149036D02*
X0134200Y0149036D01*
X0135639Y0147437D02*
X0141921Y0147437D01*
X0141921Y0145839D02*
X0136000Y0145839D01*
X0136000Y0144240D02*
X0141921Y0144240D01*
X0141921Y0142642D02*
X0135044Y0142642D01*
X0131800Y0145337D02*
X0131800Y0150337D01*
X0121800Y0160337D01*
X0101800Y0160337D01*
X0096800Y0155337D01*
X0096800Y0150337D01*
X0096800Y0147837D01*
X0101800Y0142837D01*
X0116800Y0142837D01*
X0124300Y0135337D01*
X0124300Y0057837D01*
X0114300Y0047837D01*
X0094300Y0047837D01*
X0086800Y0055337D01*
X0086800Y0120337D01*
X0090458Y0117066D02*
X0093142Y0117066D01*
X0092189Y0118664D02*
X0091411Y0118664D01*
X0091700Y0120263D02*
X0091900Y0120263D01*
X0092128Y0121861D02*
X0091472Y0121861D01*
X0090607Y0123460D02*
X0092993Y0123460D01*
X0093685Y0125058D02*
X0088207Y0125058D01*
X0085393Y0125058D02*
X0078207Y0125058D01*
X0075393Y0125058D02*
X0050473Y0125058D01*
X0049200Y0126657D02*
X0092086Y0126657D01*
X0091800Y0130337D02*
X0066800Y0130337D01*
X0061800Y0135337D01*
X0061800Y0178337D01*
X0063800Y0180337D01*
X0059598Y0182605D02*
X0054250Y0182605D01*
X0054550Y0181006D02*
X0059050Y0181006D01*
X0059050Y0179407D02*
X0054550Y0179407D01*
X0053989Y0177809D02*
X0059400Y0177809D01*
X0059400Y0176210D02*
X0052391Y0176210D01*
X0049800Y0180337D02*
X0011800Y0180337D01*
X0006800Y0175337D01*
X0006800Y0165337D01*
X0011800Y0160337D01*
X0016800Y0160337D01*
X0014156Y0153918D02*
X0013219Y0152981D01*
X0013219Y0147693D01*
X0014156Y0146756D01*
X0014400Y0146756D01*
X0014400Y0069937D01*
X0012885Y0069937D01*
X0011194Y0069237D01*
X0009900Y0067943D01*
X0009200Y0066252D01*
X0009200Y0064422D01*
X0009900Y0062731D01*
X0011194Y0061437D01*
X0012885Y0060737D01*
X0020715Y0060737D01*
X0022406Y0061437D01*
X0023700Y0062731D01*
X0024400Y0064422D01*
X0024400Y0066252D01*
X0023700Y0067943D01*
X0022406Y0069237D01*
X0020715Y0069937D01*
X0019200Y0069937D01*
X0019200Y0146756D01*
X0019444Y0146756D01*
X0020381Y0147693D01*
X0020381Y0152981D01*
X0019444Y0153918D01*
X0014156Y0153918D01*
X0014069Y0153831D02*
X0006600Y0153831D01*
X0006600Y0152233D02*
X0013219Y0152233D01*
X0013219Y0150634D02*
X0006600Y0150634D01*
X0006600Y0149036D02*
X0013219Y0149036D01*
X0013475Y0147437D02*
X0006600Y0147437D01*
X0006600Y0145839D02*
X0014400Y0145839D01*
X0014400Y0144240D02*
X0006600Y0144240D01*
X0006600Y0142642D02*
X0014400Y0142642D01*
X0014400Y0141043D02*
X0006600Y0141043D01*
X0006600Y0139445D02*
X0014400Y0139445D01*
X0014400Y0137846D02*
X0006600Y0137846D01*
X0006600Y0136248D02*
X0014400Y0136248D01*
X0014400Y0134649D02*
X0006600Y0134649D01*
X0006600Y0133051D02*
X0014400Y0133051D01*
X0014400Y0131452D02*
X0006600Y0131452D01*
X0006600Y0129854D02*
X0014400Y0129854D01*
X0014400Y0128255D02*
X0006600Y0128255D01*
X0006600Y0126657D02*
X0014400Y0126657D01*
X0014400Y0125058D02*
X0006600Y0125058D01*
X0006600Y0123460D02*
X0014400Y0123460D01*
X0014400Y0121861D02*
X0006600Y0121861D01*
X0006600Y0120263D02*
X0014400Y0120263D01*
X0014400Y0118664D02*
X0006600Y0118664D01*
X0006600Y0117066D02*
X0014400Y0117066D01*
X0014400Y0115467D02*
X0006600Y0115467D01*
X0006600Y0113869D02*
X0014400Y0113869D01*
X0014400Y0112270D02*
X0006600Y0112270D01*
X0006600Y0110672D02*
X0014400Y0110672D01*
X0014400Y0109073D02*
X0006600Y0109073D01*
X0006600Y0107474D02*
X0014400Y0107474D01*
X0014400Y0105876D02*
X0006600Y0105876D01*
X0006600Y0104277D02*
X0014400Y0104277D01*
X0014400Y0102679D02*
X0006600Y0102679D01*
X0006600Y0101080D02*
X0014400Y0101080D01*
X0014400Y0099482D02*
X0006600Y0099482D01*
X0006600Y0097883D02*
X0014400Y0097883D01*
X0014400Y0096285D02*
X0006600Y0096285D01*
X0006600Y0094686D02*
X0014400Y0094686D01*
X0014400Y0093088D02*
X0006600Y0093088D01*
X0006600Y0091489D02*
X0014400Y0091489D01*
X0014400Y0089891D02*
X0006600Y0089891D01*
X0006600Y0088292D02*
X0014400Y0088292D01*
X0014400Y0086694D02*
X0006600Y0086694D01*
X0006600Y0085095D02*
X0014400Y0085095D01*
X0014400Y0083497D02*
X0006600Y0083497D01*
X0006600Y0081898D02*
X0014400Y0081898D01*
X0014400Y0080300D02*
X0006600Y0080300D01*
X0006600Y0078701D02*
X0014400Y0078701D01*
X0014400Y0077103D02*
X0006600Y0077103D01*
X0006600Y0075504D02*
X0014400Y0075504D01*
X0014400Y0073906D02*
X0006600Y0073906D01*
X0006600Y0072307D02*
X0014400Y0072307D01*
X0014400Y0070709D02*
X0006600Y0070709D01*
X0006600Y0069110D02*
X0011068Y0069110D01*
X0009722Y0067512D02*
X0006600Y0067512D01*
X0006600Y0065913D02*
X0009200Y0065913D01*
X0009244Y0064315D02*
X0006600Y0064315D01*
X0006600Y0062716D02*
X0009915Y0062716D01*
X0011966Y0061118D02*
X0006600Y0061118D01*
X0006600Y0059519D02*
X0011876Y0059519D01*
X0009891Y0057921D02*
X0006600Y0057921D01*
X0006600Y0056322D02*
X0009229Y0056322D01*
X0009200Y0054724D02*
X0006600Y0054724D01*
X0006600Y0053125D02*
X0009737Y0053125D01*
X0011105Y0051527D02*
X0006600Y0051527D01*
X0006600Y0049928D02*
X0043815Y0049928D01*
X0045413Y0048330D02*
X0006600Y0048330D01*
X0006600Y0046731D02*
X0047012Y0046731D01*
X0049005Y0051527D02*
X0062582Y0051527D01*
X0061645Y0053125D02*
X0047406Y0053125D01*
X0045807Y0054724D02*
X0061215Y0054724D01*
X0061215Y0056322D02*
X0046179Y0056322D01*
X0047778Y0057921D02*
X0061799Y0057921D01*
X0062953Y0059519D02*
X0049376Y0059519D01*
X0050975Y0061118D02*
X0065653Y0061118D01*
X0068577Y0061118D02*
X0084400Y0061118D01*
X0084400Y0062716D02*
X0052573Y0062716D01*
X0051800Y0065337D02*
X0041800Y0055337D01*
X0051800Y0045337D01*
X0116800Y0045337D01*
X0131800Y0060337D01*
X0131800Y0125337D01*
X0134822Y0128255D02*
X0141921Y0128255D01*
X0141921Y0126657D02*
X0136000Y0126657D01*
X0136000Y0125058D02*
X0141921Y0125058D01*
X0141921Y0123460D02*
X0135862Y0123460D01*
X0134264Y0121861D02*
X0141921Y0121861D01*
X0141921Y0120263D02*
X0134200Y0120263D01*
X0134200Y0118664D02*
X0141921Y0118664D01*
X0141921Y0117066D02*
X0134200Y0117066D01*
X0134200Y0115467D02*
X0141921Y0115467D01*
X0141921Y0113869D02*
X0134200Y0113869D01*
X0134200Y0112270D02*
X0141921Y0112270D01*
X0141921Y0110672D02*
X0134200Y0110672D01*
X0134200Y0109073D02*
X0141921Y0109073D01*
X0141921Y0107474D02*
X0134200Y0107474D01*
X0134200Y0105876D02*
X0141921Y0105876D01*
X0141921Y0104277D02*
X0134200Y0104277D01*
X0134200Y0102679D02*
X0141921Y0102679D01*
X0141921Y0101080D02*
X0134200Y0101080D01*
X0134200Y0099482D02*
X0141921Y0099482D01*
X0141921Y0097883D02*
X0134200Y0097883D01*
X0134200Y0096285D02*
X0141921Y0096285D01*
X0141921Y0094686D02*
X0134200Y0094686D01*
X0134200Y0093088D02*
X0141921Y0093088D01*
X0141921Y0091489D02*
X0134200Y0091489D01*
X0134200Y0089891D02*
X0141921Y0089891D01*
X0141921Y0088292D02*
X0134200Y0088292D01*
X0134200Y0086694D02*
X0141921Y0086694D01*
X0141921Y0085095D02*
X0134200Y0085095D01*
X0134200Y0083497D02*
X0141921Y0083497D01*
X0141921Y0081898D02*
X0134200Y0081898D01*
X0134200Y0080300D02*
X0141921Y0080300D01*
X0141921Y0078701D02*
X0134200Y0078701D01*
X0134200Y0077103D02*
X0141921Y0077103D01*
X0141921Y0075504D02*
X0134200Y0075504D01*
X0134200Y0073906D02*
X0141921Y0073906D01*
X0141921Y0072307D02*
X0134200Y0072307D01*
X0134200Y0070709D02*
X0141921Y0070709D01*
X0141921Y0069110D02*
X0134200Y0069110D01*
X0134200Y0067512D02*
X0141921Y0067512D01*
X0141921Y0065913D02*
X0134200Y0065913D01*
X0134200Y0064315D02*
X0141921Y0064315D01*
X0141921Y0062716D02*
X0134200Y0062716D01*
X0134200Y0061118D02*
X0141921Y0061118D01*
X0141921Y0059519D02*
X0134059Y0059519D01*
X0132778Y0057921D02*
X0141921Y0057921D01*
X0141921Y0056322D02*
X0131179Y0056322D01*
X0129581Y0054724D02*
X0141921Y0054724D01*
X0141921Y0053125D02*
X0127982Y0053125D01*
X0126384Y0051527D02*
X0141921Y0051527D01*
X0141921Y0049928D02*
X0124785Y0049928D01*
X0123187Y0048330D02*
X0141921Y0048330D01*
X0141921Y0046731D02*
X0121588Y0046731D01*
X0116194Y0053125D02*
X0111955Y0053125D01*
X0112385Y0054163D02*
X0112385Y0056511D01*
X0111487Y0058679D01*
X0109827Y0060339D01*
X0108885Y0060729D01*
X0108885Y0104028D01*
X0118159Y0113302D01*
X0118835Y0113978D01*
X0119200Y0114860D01*
X0119200Y0135814D01*
X0118835Y0136696D01*
X0115094Y0140437D01*
X0115806Y0140437D01*
X0121900Y0134343D01*
X0121900Y0058831D01*
X0113306Y0050237D01*
X0109590Y0050237D01*
X0109827Y0050335D01*
X0111487Y0051995D01*
X0112385Y0054163D01*
X0112385Y0054724D02*
X0117792Y0054724D01*
X0119391Y0056322D02*
X0112385Y0056322D01*
X0111801Y0057921D02*
X0120990Y0057921D01*
X0121900Y0059519D02*
X0110647Y0059519D01*
X0108885Y0061118D02*
X0121900Y0061118D01*
X0121900Y0062716D02*
X0108885Y0062716D01*
X0108885Y0064315D02*
X0121900Y0064315D01*
X0121900Y0065913D02*
X0108885Y0065913D01*
X0108885Y0067512D02*
X0121900Y0067512D01*
X0121900Y0069110D02*
X0108885Y0069110D01*
X0108885Y0070709D02*
X0121900Y0070709D01*
X0121900Y0072307D02*
X0108885Y0072307D01*
X0108885Y0073906D02*
X0121900Y0073906D01*
X0121900Y0075504D02*
X0108885Y0075504D01*
X0108885Y0077103D02*
X0121900Y0077103D01*
X0121900Y0078701D02*
X0108885Y0078701D01*
X0108885Y0080300D02*
X0121900Y0080300D01*
X0121900Y0081898D02*
X0108885Y0081898D01*
X0108885Y0083497D02*
X0121900Y0083497D01*
X0121900Y0085095D02*
X0108885Y0085095D01*
X0108885Y0086694D02*
X0121900Y0086694D01*
X0121900Y0088292D02*
X0108885Y0088292D01*
X0108885Y0089891D02*
X0121900Y0089891D01*
X0121900Y0091489D02*
X0108885Y0091489D01*
X0108885Y0093088D02*
X0121900Y0093088D01*
X0121900Y0094686D02*
X0108885Y0094686D01*
X0108885Y0096285D02*
X0121900Y0096285D01*
X0121900Y0097883D02*
X0108885Y0097883D01*
X0108885Y0099482D02*
X0121900Y0099482D01*
X0121900Y0101080D02*
X0108885Y0101080D01*
X0108885Y0102679D02*
X0121900Y0102679D01*
X0121900Y0104277D02*
X0109135Y0104277D01*
X0110733Y0105876D02*
X0121900Y0105876D01*
X0121900Y0107474D02*
X0112332Y0107474D01*
X0113930Y0109073D02*
X0121900Y0109073D01*
X0121900Y0110672D02*
X0115529Y0110672D01*
X0117127Y0112270D02*
X0121900Y0112270D01*
X0121900Y0113869D02*
X0118726Y0113869D01*
X0119200Y0115467D02*
X0121900Y0115467D01*
X0121900Y0117066D02*
X0119200Y0117066D01*
X0119200Y0118664D02*
X0121900Y0118664D01*
X0121900Y0120263D02*
X0119200Y0120263D01*
X0119200Y0121861D02*
X0121900Y0121861D01*
X0121900Y0123460D02*
X0119200Y0123460D01*
X0119200Y0125058D02*
X0121900Y0125058D01*
X0121900Y0126657D02*
X0119200Y0126657D01*
X0119200Y0128255D02*
X0121900Y0128255D01*
X0121900Y0129854D02*
X0119200Y0129854D01*
X0119200Y0131452D02*
X0121900Y0131452D01*
X0121900Y0133051D02*
X0119200Y0133051D01*
X0119200Y0134649D02*
X0121594Y0134649D01*
X0119995Y0136248D02*
X0119021Y0136248D01*
X0118397Y0137846D02*
X0117685Y0137846D01*
X0116798Y0139445D02*
X0116086Y0139445D01*
X0114094Y0134649D02*
X0065882Y0134649D01*
X0067480Y0133051D02*
X0114400Y0133051D01*
X0114400Y0131452D02*
X0094079Y0131452D01*
X0095677Y0129854D02*
X0114400Y0129854D01*
X0114400Y0128255D02*
X0097276Y0128255D01*
X0098851Y0126657D02*
X0114400Y0126657D01*
X0114400Y0125058D02*
X0108207Y0125058D01*
X0107775Y0125237D02*
X0105825Y0125237D01*
X0104024Y0124491D01*
X0102646Y0123113D01*
X0101900Y0121312D01*
X0101900Y0119362D01*
X0102646Y0117561D01*
X0104024Y0116183D01*
X0105825Y0115437D01*
X0107775Y0115437D01*
X0109576Y0116183D01*
X0110954Y0117561D01*
X0111700Y0119362D01*
X0111700Y0121312D01*
X0110954Y0123113D01*
X0109576Y0124491D01*
X0107775Y0125237D01*
X0105393Y0125058D02*
X0099200Y0125058D01*
X0100607Y0123460D02*
X0102993Y0123460D01*
X0102128Y0121861D02*
X0101472Y0121861D01*
X0101700Y0120263D02*
X0101900Y0120263D01*
X0102189Y0118664D02*
X0101411Y0118664D01*
X0100458Y0117066D02*
X0103142Y0117066D01*
X0105753Y0115467D02*
X0097847Y0115467D01*
X0095753Y0115467D02*
X0089200Y0115467D01*
X0089200Y0113869D02*
X0111937Y0113869D01*
X0113536Y0115467D02*
X0107847Y0115467D01*
X0110458Y0117066D02*
X0114400Y0117066D01*
X0114400Y0118664D02*
X0111411Y0118664D01*
X0111700Y0120263D02*
X0114400Y0120263D01*
X0114400Y0121861D02*
X0111472Y0121861D01*
X0110607Y0123460D02*
X0114400Y0123460D01*
X0110339Y0112270D02*
X0089200Y0112270D01*
X0089200Y0110672D02*
X0108740Y0110672D01*
X0107142Y0109073D02*
X0089200Y0109073D01*
X0089200Y0107474D02*
X0105543Y0107474D01*
X0104241Y0105876D02*
X0089200Y0105876D01*
X0089200Y0104277D02*
X0104085Y0104277D01*
X0104085Y0102679D02*
X0089200Y0102679D01*
X0089200Y0101080D02*
X0104085Y0101080D01*
X0104085Y0099482D02*
X0089200Y0099482D01*
X0089200Y0097883D02*
X0104085Y0097883D01*
X0104085Y0096285D02*
X0089200Y0096285D01*
X0089200Y0094686D02*
X0104085Y0094686D01*
X0104085Y0093088D02*
X0089200Y0093088D01*
X0089200Y0091489D02*
X0104085Y0091489D01*
X0104085Y0089891D02*
X0089200Y0089891D01*
X0089200Y0088292D02*
X0104085Y0088292D01*
X0104085Y0086694D02*
X0089200Y0086694D01*
X0089200Y0085095D02*
X0104085Y0085095D01*
X0104085Y0083497D02*
X0089200Y0083497D01*
X0089200Y0081898D02*
X0104085Y0081898D01*
X0104085Y0080300D02*
X0089200Y0080300D01*
X0089200Y0078701D02*
X0104085Y0078701D01*
X0104085Y0077103D02*
X0089200Y0077103D01*
X0089200Y0075504D02*
X0104085Y0075504D01*
X0104085Y0073906D02*
X0089200Y0073906D01*
X0089200Y0072307D02*
X0104085Y0072307D01*
X0104085Y0070709D02*
X0089200Y0070709D01*
X0089200Y0069110D02*
X0104085Y0069110D01*
X0104085Y0067512D02*
X0089200Y0067512D01*
X0089200Y0065913D02*
X0104085Y0065913D01*
X0104085Y0064315D02*
X0089200Y0064315D01*
X0089200Y0062716D02*
X0104085Y0062716D01*
X0104085Y0061118D02*
X0089200Y0061118D01*
X0090962Y0059519D02*
X0102323Y0059519D01*
X0101169Y0057921D02*
X0092116Y0057921D01*
X0092700Y0056322D02*
X0100585Y0056322D01*
X0100585Y0054724D02*
X0092700Y0054724D01*
X0092406Y0053125D02*
X0101015Y0053125D01*
X0101952Y0051527D02*
X0094005Y0051527D01*
X0090413Y0048330D02*
X0052202Y0048330D01*
X0050603Y0049928D02*
X0064756Y0049928D01*
X0069474Y0049928D02*
X0084441Y0049928D01*
X0082267Y0051527D02*
X0071648Y0051527D01*
X0067115Y0055337D02*
X0086800Y0055337D01*
X0082638Y0059519D02*
X0071277Y0059519D01*
X0072431Y0057921D02*
X0081484Y0057921D01*
X0084400Y0064315D02*
X0059172Y0064315D01*
X0060770Y0065913D02*
X0084400Y0065913D01*
X0084400Y0067512D02*
X0062369Y0067512D01*
X0063967Y0069110D02*
X0084400Y0069110D01*
X0084400Y0070709D02*
X0065566Y0070709D01*
X0067164Y0072307D02*
X0084400Y0072307D01*
X0084400Y0073906D02*
X0068763Y0073906D01*
X0070361Y0075504D02*
X0084400Y0075504D01*
X0084400Y0077103D02*
X0071960Y0077103D01*
X0073558Y0078701D02*
X0084400Y0078701D01*
X0084400Y0080300D02*
X0075157Y0080300D01*
X0076755Y0081898D02*
X0084400Y0081898D01*
X0084400Y0083497D02*
X0078354Y0083497D01*
X0079200Y0085095D02*
X0084400Y0085095D01*
X0084400Y0086694D02*
X0079200Y0086694D01*
X0079200Y0088292D02*
X0084400Y0088292D01*
X0084400Y0089891D02*
X0079200Y0089891D01*
X0079200Y0091489D02*
X0084400Y0091489D01*
X0084400Y0093088D02*
X0079200Y0093088D01*
X0079200Y0094686D02*
X0084400Y0094686D01*
X0084400Y0096285D02*
X0079200Y0096285D01*
X0079200Y0097883D02*
X0084400Y0097883D01*
X0084400Y0099482D02*
X0079200Y0099482D01*
X0079200Y0101080D02*
X0084400Y0101080D01*
X0084400Y0102679D02*
X0079200Y0102679D01*
X0079200Y0104277D02*
X0084400Y0104277D01*
X0084400Y0105876D02*
X0079200Y0105876D01*
X0079200Y0107474D02*
X0084400Y0107474D01*
X0084400Y0109073D02*
X0079200Y0109073D01*
X0079200Y0110672D02*
X0084400Y0110672D01*
X0084400Y0112270D02*
X0079200Y0112270D01*
X0079200Y0113869D02*
X0084400Y0113869D01*
X0084400Y0115467D02*
X0079200Y0115467D01*
X0080458Y0117066D02*
X0083142Y0117066D01*
X0082189Y0118664D02*
X0081411Y0118664D01*
X0081700Y0120263D02*
X0081900Y0120263D01*
X0082128Y0121861D02*
X0081472Y0121861D01*
X0080607Y0123460D02*
X0082993Y0123460D01*
X0076800Y0120337D02*
X0051800Y0120337D01*
X0046800Y0125337D01*
X0046800Y0150337D01*
X0026800Y0170337D01*
X0016800Y0170337D01*
X0012100Y0174612D02*
X0009469Y0174612D01*
X0009200Y0173013D02*
X0009971Y0173013D01*
X0009267Y0171415D02*
X0009200Y0171415D01*
X0009200Y0169816D02*
X0009200Y0169816D01*
X0009200Y0168218D02*
X0009699Y0168218D01*
X0009200Y0166619D02*
X0011012Y0166619D01*
X0010510Y0165021D02*
X0028722Y0165021D01*
X0027123Y0166619D02*
X0022588Y0166619D01*
X0023220Y0163422D02*
X0030321Y0163422D01*
X0031919Y0161824D02*
X0024163Y0161824D01*
X0024400Y0160225D02*
X0033518Y0160225D01*
X0035116Y0158627D02*
X0024071Y0158627D01*
X0022997Y0157028D02*
X0036715Y0157028D01*
X0038313Y0155430D02*
X0006600Y0155430D01*
X0006600Y0157028D02*
X0010603Y0157028D01*
X0009529Y0158627D02*
X0006600Y0158627D01*
X0006600Y0160225D02*
X0008518Y0160225D01*
X0006919Y0161824D02*
X0006600Y0161824D01*
X0011068Y0176210D02*
X0047209Y0176210D01*
X0045611Y0177809D02*
X0012666Y0177809D01*
X0009075Y0181006D02*
X0006600Y0181006D01*
X0006600Y0179407D02*
X0007476Y0179407D01*
X0006600Y0182605D02*
X0011003Y0182605D01*
X0006600Y0184203D02*
X0046949Y0184203D01*
X0052651Y0184203D02*
X0060949Y0184203D01*
X0066651Y0184203D02*
X0141921Y0184203D01*
X0141921Y0182605D02*
X0068002Y0182605D01*
X0068550Y0181006D02*
X0141921Y0181006D01*
X0141921Y0176210D02*
X0131000Y0176210D01*
X0131000Y0174612D02*
X0141921Y0174612D01*
X0141921Y0173013D02*
X0130416Y0173013D01*
X0128818Y0171415D02*
X0141921Y0171415D01*
X0141921Y0185802D02*
X0006600Y0185802D01*
X0006600Y0187400D02*
X0141921Y0187400D01*
X0141921Y0188999D02*
X0006600Y0188999D01*
X0006600Y0190597D02*
X0141921Y0190597D01*
X0141921Y0192196D02*
X0006600Y0192196D01*
X0006600Y0193794D02*
X0141921Y0193794D01*
X0121715Y0157028D02*
X0101885Y0157028D01*
X0100287Y0155430D02*
X0123313Y0155430D01*
X0124912Y0153831D02*
X0110235Y0153831D01*
X0109576Y0154491D02*
X0110954Y0153113D01*
X0111700Y0151312D01*
X0111700Y0149362D01*
X0110954Y0147561D01*
X0109576Y0146183D01*
X0107775Y0145437D01*
X0105825Y0145437D01*
X0104024Y0146183D01*
X0102646Y0147561D01*
X0101900Y0149362D01*
X0101900Y0151312D01*
X0102646Y0153113D01*
X0104024Y0154491D01*
X0105825Y0155237D01*
X0107775Y0155237D01*
X0109576Y0154491D01*
X0111318Y0152233D02*
X0126510Y0152233D01*
X0128109Y0150634D02*
X0111700Y0150634D01*
X0111565Y0149036D02*
X0129400Y0149036D01*
X0127961Y0147437D02*
X0110830Y0147437D01*
X0108745Y0145839D02*
X0127600Y0145839D01*
X0127600Y0144240D02*
X0118791Y0144240D01*
X0120389Y0142642D02*
X0128556Y0142642D01*
X0125185Y0137846D02*
X0141921Y0137846D01*
X0141921Y0136248D02*
X0126521Y0136248D01*
X0126700Y0134649D02*
X0141921Y0134649D01*
X0141921Y0133051D02*
X0126700Y0133051D01*
X0126700Y0131452D02*
X0141921Y0131452D01*
X0141921Y0129854D02*
X0126700Y0129854D01*
X0126700Y0128255D02*
X0128778Y0128255D01*
X0127600Y0126657D02*
X0126700Y0126657D01*
X0126700Y0125058D02*
X0127600Y0125058D01*
X0127738Y0123460D02*
X0126700Y0123460D01*
X0126700Y0121861D02*
X0129336Y0121861D01*
X0129400Y0120263D02*
X0126700Y0120263D01*
X0126700Y0118664D02*
X0129400Y0118664D01*
X0129400Y0117066D02*
X0126700Y0117066D01*
X0126700Y0115467D02*
X0129400Y0115467D01*
X0129400Y0113869D02*
X0126700Y0113869D01*
X0126700Y0112270D02*
X0129400Y0112270D01*
X0129400Y0110672D02*
X0126700Y0110672D01*
X0126700Y0109073D02*
X0129400Y0109073D01*
X0129400Y0107474D02*
X0126700Y0107474D01*
X0126700Y0105876D02*
X0129400Y0105876D01*
X0129400Y0104277D02*
X0126700Y0104277D01*
X0126700Y0102679D02*
X0129400Y0102679D01*
X0129400Y0101080D02*
X0126700Y0101080D01*
X0126700Y0099482D02*
X0129400Y0099482D01*
X0129400Y0097883D02*
X0126700Y0097883D01*
X0126700Y0096285D02*
X0129400Y0096285D01*
X0129400Y0094686D02*
X0126700Y0094686D01*
X0126700Y0093088D02*
X0129400Y0093088D01*
X0129400Y0091489D02*
X0126700Y0091489D01*
X0126700Y0089891D02*
X0129400Y0089891D01*
X0129400Y0088292D02*
X0126700Y0088292D01*
X0126700Y0086694D02*
X0129400Y0086694D01*
X0129400Y0085095D02*
X0126700Y0085095D01*
X0126700Y0083497D02*
X0129400Y0083497D01*
X0129400Y0081898D02*
X0126700Y0081898D01*
X0126700Y0080300D02*
X0129400Y0080300D01*
X0129400Y0078701D02*
X0126700Y0078701D01*
X0126700Y0077103D02*
X0129400Y0077103D01*
X0129400Y0075504D02*
X0126700Y0075504D01*
X0126700Y0073906D02*
X0129400Y0073906D01*
X0129400Y0072307D02*
X0126700Y0072307D01*
X0126700Y0070709D02*
X0129400Y0070709D01*
X0129400Y0069110D02*
X0126700Y0069110D01*
X0126700Y0067512D02*
X0129400Y0067512D01*
X0129400Y0065913D02*
X0126700Y0065913D01*
X0126700Y0064315D02*
X0129400Y0064315D01*
X0129400Y0062716D02*
X0126700Y0062716D01*
X0126700Y0061118D02*
X0129187Y0061118D01*
X0127588Y0059519D02*
X0126700Y0059519D01*
X0114595Y0051527D02*
X0111018Y0051527D01*
X0076800Y0085337D02*
X0056800Y0065337D01*
X0051800Y0065337D01*
X0050779Y0067512D02*
X0023878Y0067512D01*
X0024400Y0065913D02*
X0048982Y0065913D01*
X0047384Y0064315D02*
X0024356Y0064315D01*
X0023685Y0062716D02*
X0045785Y0062716D01*
X0044187Y0061118D02*
X0021634Y0061118D01*
X0021724Y0059519D02*
X0042588Y0059519D01*
X0040990Y0057921D02*
X0023709Y0057921D01*
X0022495Y0051527D02*
X0042216Y0051527D01*
X0041800Y0055337D02*
X0016800Y0055337D01*
X0016800Y0065337D02*
X0016800Y0150337D01*
X0020381Y0150634D02*
X0043109Y0150634D01*
X0044400Y0149036D02*
X0020381Y0149036D01*
X0020125Y0147437D02*
X0044400Y0147437D01*
X0044400Y0145839D02*
X0019200Y0145839D01*
X0019200Y0144240D02*
X0044400Y0144240D01*
X0044400Y0142642D02*
X0019200Y0142642D01*
X0019200Y0141043D02*
X0044400Y0141043D01*
X0044400Y0139445D02*
X0019200Y0139445D01*
X0019200Y0137846D02*
X0044400Y0137846D01*
X0044400Y0136248D02*
X0019200Y0136248D01*
X0019200Y0134649D02*
X0044400Y0134649D01*
X0044400Y0133051D02*
X0019200Y0133051D01*
X0019200Y0131452D02*
X0044400Y0131452D01*
X0044400Y0129854D02*
X0019200Y0129854D01*
X0019200Y0128255D02*
X0044400Y0128255D01*
X0044400Y0126657D02*
X0019200Y0126657D01*
X0019200Y0125058D02*
X0044400Y0125058D01*
X0045283Y0123460D02*
X0019200Y0123460D01*
X0019200Y0121861D02*
X0046882Y0121861D01*
X0048480Y0120263D02*
X0019200Y0120263D01*
X0019200Y0118664D02*
X0050079Y0118664D01*
X0052072Y0123460D02*
X0072993Y0123460D01*
X0076800Y0120337D02*
X0076800Y0085337D01*
X0074400Y0086694D02*
X0019200Y0086694D01*
X0019200Y0088292D02*
X0074400Y0088292D01*
X0074400Y0089891D02*
X0019200Y0089891D01*
X0019200Y0091489D02*
X0074400Y0091489D01*
X0074400Y0093088D02*
X0019200Y0093088D01*
X0019200Y0094686D02*
X0074400Y0094686D01*
X0074400Y0096285D02*
X0019200Y0096285D01*
X0019200Y0097883D02*
X0074400Y0097883D01*
X0074400Y0099482D02*
X0019200Y0099482D01*
X0019200Y0101080D02*
X0074400Y0101080D01*
X0074400Y0102679D02*
X0019200Y0102679D01*
X0019200Y0104277D02*
X0074400Y0104277D01*
X0074400Y0105876D02*
X0019200Y0105876D01*
X0019200Y0107474D02*
X0074400Y0107474D01*
X0074400Y0109073D02*
X0019200Y0109073D01*
X0019200Y0110672D02*
X0074400Y0110672D01*
X0074400Y0112270D02*
X0019200Y0112270D01*
X0019200Y0113869D02*
X0074400Y0113869D01*
X0074400Y0115467D02*
X0019200Y0115467D01*
X0019200Y0117066D02*
X0073142Y0117066D01*
X0065555Y0128255D02*
X0049200Y0128255D01*
X0049200Y0129854D02*
X0063889Y0129854D01*
X0062291Y0131452D02*
X0049200Y0131452D01*
X0049200Y0133051D02*
X0060692Y0133051D01*
X0059487Y0134649D02*
X0049200Y0134649D01*
X0049200Y0136248D02*
X0059400Y0136248D01*
X0059400Y0137846D02*
X0049200Y0137846D01*
X0049200Y0139445D02*
X0059400Y0139445D01*
X0059400Y0141043D02*
X0049200Y0141043D01*
X0049200Y0142642D02*
X0059400Y0142642D01*
X0059400Y0144240D02*
X0049200Y0144240D01*
X0049200Y0145839D02*
X0059400Y0145839D01*
X0059400Y0147437D02*
X0049200Y0147437D01*
X0049200Y0149036D02*
X0059400Y0149036D01*
X0059400Y0150634D02*
X0049200Y0150634D01*
X0048298Y0152233D02*
X0059400Y0152233D01*
X0059400Y0153831D02*
X0046700Y0153831D01*
X0045101Y0155430D02*
X0059400Y0155430D01*
X0059400Y0157028D02*
X0043503Y0157028D01*
X0041904Y0158627D02*
X0059400Y0158627D01*
X0059400Y0160225D02*
X0040306Y0160225D01*
X0038707Y0161824D02*
X0059400Y0161824D01*
X0059400Y0163422D02*
X0037109Y0163422D01*
X0035510Y0165021D02*
X0059400Y0165021D01*
X0059400Y0166619D02*
X0033912Y0166619D01*
X0032313Y0168218D02*
X0059400Y0168218D01*
X0059400Y0169816D02*
X0030715Y0169816D01*
X0029116Y0171415D02*
X0059400Y0171415D01*
X0059400Y0173013D02*
X0023629Y0173013D01*
X0021500Y0174612D02*
X0059400Y0174612D01*
X0064200Y0174612D02*
X0082600Y0174612D01*
X0082600Y0176210D02*
X0066250Y0176210D01*
X0067894Y0177809D02*
X0083332Y0177809D01*
X0084931Y0179407D02*
X0068550Y0179407D01*
X0064200Y0173013D02*
X0083184Y0173013D01*
X0084400Y0171415D02*
X0064200Y0171415D01*
X0064200Y0169816D02*
X0084400Y0169816D01*
X0084400Y0168218D02*
X0064200Y0168218D01*
X0064200Y0166619D02*
X0084400Y0166619D01*
X0084400Y0165021D02*
X0064200Y0165021D01*
X0064200Y0163422D02*
X0084400Y0163422D01*
X0084400Y0161824D02*
X0064200Y0161824D01*
X0064200Y0160225D02*
X0083294Y0160225D01*
X0081696Y0158627D02*
X0064200Y0158627D01*
X0064200Y0157028D02*
X0080097Y0157028D01*
X0078499Y0155430D02*
X0064200Y0155430D01*
X0066800Y0150337D02*
X0076800Y0150337D01*
X0086800Y0160337D01*
X0086800Y0175337D01*
X0090416Y0173013D02*
X0098582Y0173013D01*
X0096984Y0171415D02*
X0089200Y0171415D01*
X0089200Y0169816D02*
X0095385Y0169816D01*
X0093787Y0168218D02*
X0089200Y0168218D01*
X0089200Y0166619D02*
X0092233Y0166619D01*
X0091900Y0165021D02*
X0089200Y0165021D01*
X0089200Y0163422D02*
X0091900Y0163422D01*
X0091900Y0161824D02*
X0089200Y0161824D01*
X0089200Y0160225D02*
X0091900Y0160225D01*
X0091696Y0158627D02*
X0088484Y0158627D01*
X0086885Y0157028D02*
X0090097Y0157028D01*
X0088499Y0155430D02*
X0085287Y0155430D01*
X0082282Y0152233D02*
X0082090Y0152233D01*
X0081900Y0150634D02*
X0081700Y0150634D01*
X0081565Y0149036D02*
X0082035Y0149036D01*
X0082770Y0147437D02*
X0080830Y0147437D01*
X0078745Y0145839D02*
X0084855Y0145839D01*
X0089503Y0144240D02*
X0064200Y0144240D01*
X0064200Y0142642D02*
X0091101Y0142642D01*
X0092700Y0141043D02*
X0064200Y0141043D01*
X0064200Y0139445D02*
X0094298Y0139445D01*
X0097794Y0142737D02*
X0098506Y0142737D01*
X0095792Y0145451D01*
X0094577Y0145954D01*
X0097794Y0142737D01*
X0097003Y0144240D02*
X0096291Y0144240D01*
X0094855Y0145839D02*
X0094692Y0145839D01*
X0092417Y0148114D02*
X0091544Y0148987D01*
X0091700Y0149362D01*
X0091700Y0151312D01*
X0091544Y0151687D01*
X0092417Y0152560D01*
X0091900Y0151312D01*
X0091900Y0149362D01*
X0092417Y0148114D01*
X0092035Y0149036D02*
X0091565Y0149036D01*
X0091700Y0150634D02*
X0091900Y0150634D01*
X0092090Y0152233D02*
X0092282Y0152233D01*
X0096700Y0160225D02*
X0098294Y0160225D01*
X0096700Y0161824D02*
X0099893Y0161824D01*
X0100235Y0153831D02*
X0103365Y0153831D01*
X0102282Y0152233D02*
X0101318Y0152233D01*
X0101700Y0150634D02*
X0101900Y0150634D01*
X0102035Y0149036D02*
X0101565Y0149036D01*
X0100830Y0147437D02*
X0102770Y0147437D01*
X0102192Y0145839D02*
X0104855Y0145839D01*
X0110897Y0137846D02*
X0064200Y0137846D01*
X0064283Y0136248D02*
X0112495Y0136248D01*
X0121988Y0141043D02*
X0141921Y0141043D01*
X0141921Y0139445D02*
X0123586Y0139445D01*
X0096800Y0125337D02*
X0096800Y0120337D01*
X0096800Y0125337D02*
X0091800Y0130337D01*
X0074855Y0145839D02*
X0064200Y0145839D01*
X0070125Y0147437D02*
X0072770Y0147437D01*
X0073365Y0153831D02*
X0069531Y0153831D01*
X0091000Y0174612D02*
X0100181Y0174612D01*
X0101779Y0176210D02*
X0091000Y0176210D01*
X0041510Y0152233D02*
X0020381Y0152233D01*
X0019531Y0153831D02*
X0039912Y0153831D01*
X0019200Y0085095D02*
X0073164Y0085095D01*
X0071566Y0083497D02*
X0019200Y0083497D01*
X0019200Y0081898D02*
X0069967Y0081898D01*
X0068369Y0080300D02*
X0019200Y0080300D01*
X0019200Y0078701D02*
X0066770Y0078701D01*
X0065172Y0077103D02*
X0019200Y0077103D01*
X0019200Y0075504D02*
X0063573Y0075504D01*
X0061975Y0073906D02*
X0019200Y0073906D01*
X0019200Y0072307D02*
X0060376Y0072307D01*
X0058778Y0070709D02*
X0019200Y0070709D01*
X0022532Y0069110D02*
X0057179Y0069110D01*
D18*
X0066800Y0150337D03*
X0016800Y0150337D03*
M02*
