%
M48
M72
T01C0.02362
T02C0.03200
T03C0.04000
T04C0.04724
%
T01
X16800Y150337
X66800Y150337
T02
X76800Y150337
X86800Y150337
X96800Y150337
X106800Y150337
X86800Y175337
X63800Y180337
X49800Y180337
X76800Y120337
X86800Y120337
X96800Y120337
X106800Y120337
X131800Y125337
X131800Y145337
X126800Y175337
T03
X16800Y55337
X16800Y65337
X16800Y160337
X16800Y170337
T04
X67115Y55337
X86800Y55337
X106485Y55337
M30
